<?xml version="1.0" encoding="UTF-8" standalone="no"?><!DOCTYPE svg PUBLIC "-//W3C//DTD SVG 1.1//EN" "http://www.w3.org/Graphics/SVG/1.1/DTD/svg11.dtd"><svg width="100%" height="100%" viewBox="0 0 512 512" version="1.1" xmlns="http://www.w3.org/2000/svg" xmlns:xlink="http://www.w3.org/1999/xlink" xml:space="preserve" xmlns:serif="http://www.serif.com/" style="fill-rule:evenodd;clip-rule:evenodd;stroke-linejoin:round;stroke-miterlimit:2;"><path d="M496,128l0,16c0,4.389 -3.611,8 -8,8l-24,0l0,12c0,6.627 -5.373,12 -12,12l-392,0c-6.627,0 -12,-5.373 -12,-12l0,-12l-24,0c-4.389,0 -8,-3.611 -8,-8l0,-16c0,-3.23 1.956,-6.157 4.941,-7.392l232,-88c1.958,-0.811 4.16,-0.811 6.118,0l232,88c2.985,1.235 4.941,4.162 4.941,7.392Zm-24,304l-432,0c-13.255,0 -24,10.745 -24,24l0,16c0,4.389 3.611,8 8,8l464,0c4.389,0 8,-3.611 8,-8l0,-16c0,-13.255 -10.745,-24 -24,-24Zm-376,-240l0,192l-36,0c-6.627,0 -12,5.373 -12,12l0,20l416,0l0,-20c0,-6.627 -5.373,-12 -12,-12l-36,0l0,-192l-64,0l0,192l-64,0l0,-192l-64,0l0,192l-64,0l0,-192l-64,0Z" style="fill:#222;fill-rule:nonzero;"/></svg>